<svg width="183" height="27" viewBox="0 0 183 27" fill="none" xmlns="http://www.w3.org/2000/svg">
<g clip-path="url(#clip0_30_458)">
<path d="M64.2827 15.1438L59.4893 21.0611L63.4607 25.9602H66.1551H69.6046H73.0497L64.2827 15.1438Z" fill="#FF4554"/>
<path d="M45.2015 17.8404H37.2564L37.1917 17.9224C36.1368 19.2534 35.0021 20.1379 32.8966 20.1379C30.0835 20.1379 27.909 18.4574 27.4086 15.9291H45.7193L45.7473 15.7457C45.7602 15.6681 45.771 15.5926 45.784 15.5214C45.8616 15.0403 45.9285 14.6261 45.9285 13.7697C45.9285 10.0722 44.6018 6.64862 42.1965 4.12464C39.7588 1.57046 36.4086 0.16394 32.765 0.16394C29.1214 0.16394 25.8446 1.61361 23.3767 4.2476C21.0339 6.75001 19.6899 10.139 19.6899 13.5475C19.6899 20.8303 25.6137 26.7541 32.8966 26.7541C35.4939 26.7541 37.9532 25.9754 40.0047 24.5041C42.1361 23.0523 43.8899 20.8519 45.0699 18.1403L45.2015 17.8382V17.8404ZM27.5121 10.5489C28.2909 7.5827 31.1816 6.78237 32.8081 6.78237C34.4347 6.78237 37.3233 7.5827 38.1042 10.5489H27.5143H27.5121Z" fill="#FF4554"/>
<path d="M102.727 1.00317H102.556L102.517 1.16928L99.0055 15.763L95.1138 1.16281L95.0707 1.00317H94.9046H88.7176H88.5515L88.5105 1.16497L84.6598 15.7587L81.15 1.16928L81.1111 1.00317H80.9407H73.3407H73.0474L73.1337 1.28362L80.6452 25.8072L80.6926 25.9603H80.8523H87.6584H87.8245L87.8655 25.7985L91.8111 10.5706L95.7567 25.7985L95.7977 25.9603H95.9659H102.77H102.93L102.977 25.8072L110.488 1.28362L110.575 1.00317H110.284H102.727Z" fill="#FF4554"/>
<path d="M130.393 1.00311H130.178V3.24664C129.362 2.14861 127.313 0.16394 123.145 0.16394C119.803 0.16394 116.688 1.43887 114.376 3.75144C111.906 6.22148 110.601 9.57816 110.601 13.459C110.601 17.0573 111.774 20.373 113.901 22.7977C116.199 25.4145 119.396 26.7994 123.145 26.7994C124.681 26.7994 126.163 26.4996 127.425 25.9301C128.609 25.3972 129.55 24.64 130.175 23.7254V25.9603H137.941V1.00311H130.391H130.393ZM130.178 13.459C130.178 15.8946 128.598 19.5187 124.252 19.5187C119.905 19.5187 118.369 15.4955 118.369 13.5475C118.369 12.0741 118.88 10.5921 119.773 9.47892C120.517 8.55131 121.892 7.44464 124.206 7.44464C127.173 7.44464 130.178 9.51128 130.178 13.459Z" fill="#FF4554"/>
<path d="M179.203 4.12464C176.765 1.57046 173.417 0.16394 169.774 0.16394C166.13 0.16394 162.853 1.61361 160.385 4.2476C158.043 6.75001 156.699 10.139 156.699 13.5475C156.699 20.8303 162.623 26.7541 169.905 26.7541C172.503 26.7541 174.962 25.9754 177.013 24.5041C179.145 23.0523 180.899 20.8519 182.079 18.1403L182.21 17.8382H174.265L174.2 17.9202C173.146 19.2512 172.011 20.1357 169.905 20.1357C167.092 20.1357 164.918 18.4552 164.417 15.9269H182.728L182.756 15.7436C182.769 15.6659 182.78 15.5926 182.791 15.5192C182.868 15.0381 182.935 14.624 182.935 13.7675C182.935 10.07 181.608 6.64646 179.203 4.12248V4.12464ZM164.521 10.5489C165.3 7.5827 168.19 6.78237 169.817 6.78237C171.443 6.78237 174.334 7.5827 175.113 10.5489H164.523H164.521Z" fill="#FF4554"/>
<path d="M155.118 0.200684C153.931 0.200684 152.803 0.401307 151.735 0.802555C150.665 1.2038 149.714 1.76253 148.879 2.48089L148.855 1.00318H141.091V25.9603H148.879V12.0526C148.879 11.2673 149.067 10.5533 149.442 9.91044C149.817 9.26758 150.326 8.75847 150.971 8.38095C151.614 8.00559 152.328 7.81791 153.114 7.81791C153.731 7.81791 154.332 7.95166 154.917 8.21916L157.875 0.601931C156.938 0.334433 156.019 0.200684 155.118 0.200684Z" fill="#FF4554"/>
<path d="M72.808 1.00317H69.6045H66.1551H63.4542L59.4849 5.90228L64.2826 11.8196L73.0496 1.00317H72.808Z" fill="#FF4554"/>
<path d="M57.7741 7.11033L52.8232 1.00317H43.189L48.1377 7.11033L53.3021 13.4828L48.1377 19.8532L43.189 25.9603H52.5816H52.8232L57.7741 19.8532L62.9364 13.4828L57.7741 7.11033Z" fill="#FF4554"/>
<path d="M16.176 18.6279H7.71527V1.00317H-1V18.6279V25.7446V25.9603H-0.784276H6.55036H6.76608H16.176H16.2882H19.0451V18.6279H16.2882H16.176Z" fill="#FF4554"/>
</g>
<defs>
<clipPath id="clip0_30_458">
<rect width="184" height="26.7994" fill="white" transform="translate(-1)"/>
</clipPath>
</defs>
</svg>
