<svg width="16" height="15" viewBox="0 0 16 15" fill="none" xmlns="http://www.w3.org/2000/svg">
<path d="M6.68309 0.609076C7.028 -0.203036 8.17903 -0.203035 8.52394 0.609078L9.91502 3.88444C10.0595 4.22465 10.3799 4.45741 10.7481 4.4897L14.293 4.80055C15.172 4.87763 15.5276 5.97232 14.8619 6.55131L12.1767 8.88644C11.8978 9.12899 11.7754 9.50561 11.8585 9.86578L12.6583 13.3333C12.8566 14.193 11.9254 14.8696 11.169 14.4153L8.11838 12.5831C7.80152 12.3928 7.40552 12.3928 7.08865 12.5831L4.03803 14.4153C3.28164 14.8696 2.35045 14.193 2.54875 13.3333L3.34855 9.86578C3.43163 9.50561 3.30926 9.12899 3.03035 8.88644L0.345164 6.55131C-0.320617 5.97232 0.0350713 4.87763 0.914021 4.80055L4.45894 4.4897C4.82715 4.45741 5.14752 4.22465 5.29201 3.88444L6.68309 0.609076Z" fill="#FFC737"/>
</svg>
