<svg width="89" height="11" viewBox="0 0 89 11" fill="none" xmlns="http://www.w3.org/2000/svg">
<path d="M0 10.1924V0.170898H1.32617V9.00977H6.26172V10.1924H0ZM7.23242 6.5625C7.23242 5.2181 7.60612 4.22233 8.35352 3.5752C8.97786 3.03743 9.73893 2.76855 10.6367 2.76855C11.6348 2.76855 12.4505 3.09668 13.084 3.75293C13.7174 4.40462 14.0342 5.30697 14.0342 6.45996C14.0342 7.39421 13.8929 8.13021 13.6104 8.66797C13.3324 9.20117 12.9245 9.61589 12.3867 9.91211C11.8535 10.2083 11.2702 10.3564 10.6367 10.3564C9.62044 10.3564 8.79785 10.0306 8.16895 9.37891C7.5446 8.72721 7.23242 7.78841 7.23242 6.5625ZM8.49707 6.5625C8.49707 7.49219 8.69987 8.18945 9.10547 8.6543C9.51107 9.11458 10.0215 9.34473 10.6367 9.34473C11.2474 9.34473 11.7555 9.1123 12.1611 8.64746C12.5667 8.18262 12.7695 7.47396 12.7695 6.52148C12.7695 5.6237 12.5645 4.94466 12.1543 4.48438C11.7487 4.01953 11.2428 3.78711 10.6367 3.78711C10.0215 3.78711 9.51107 4.01725 9.10547 4.47754C8.69987 4.93783 8.49707 5.63281 8.49707 6.5625ZM15.4834 10.1924V0.170898H16.7139V3.7666C17.2881 3.10124 18.0127 2.76855 18.8877 2.76855C19.4255 2.76855 19.8926 2.87565 20.2891 3.08984C20.6855 3.29948 20.9681 3.59115 21.1367 3.96484C21.3099 4.33854 21.3965 4.88086 21.3965 5.5918V10.1924H20.166V5.5918C20.166 4.97656 20.0316 4.52995 19.7627 4.25195C19.4984 3.9694 19.1224 3.82812 18.6348 3.82812C18.2702 3.82812 17.9261 3.92383 17.6025 4.11523C17.2835 4.30208 17.0557 4.55729 16.9189 4.88086C16.7822 5.20443 16.7139 5.65104 16.7139 6.2207V10.1924H15.4834ZM23.2764 10.1924V2.93262H24.3838V3.96484C24.917 3.16732 25.6872 2.76855 26.6943 2.76855C27.1318 2.76855 27.5329 2.84831 27.8975 3.00781C28.2666 3.16276 28.5423 3.36784 28.7246 3.62305C28.9069 3.87826 29.0345 4.18132 29.1074 4.53223C29.153 4.76009 29.1758 5.15885 29.1758 5.72852V10.1924H27.9453V5.77637C27.9453 5.27507 27.8975 4.90137 27.8018 4.65527C27.7061 4.40462 27.5352 4.20638 27.2891 4.06055C27.0475 3.91016 26.7627 3.83496 26.4346 3.83496C25.9105 3.83496 25.457 4.0013 25.0742 4.33398C24.696 4.66667 24.5068 5.29785 24.5068 6.22754V10.1924H23.2764ZM40.6943 9.00977C40.2887 9.46094 39.8467 9.80046 39.3682 10.0283C38.8896 10.2516 38.3724 10.3633 37.8164 10.3633C36.791 10.3633 35.9775 10.0169 35.376 9.32422C34.8883 8.75911 34.6445 8.12793 34.6445 7.43066C34.6445 6.81087 34.8428 6.2526 35.2393 5.75586C35.6403 5.25456 36.2373 4.81478 37.0303 4.43652C36.5791 3.91699 36.2783 3.49544 36.1279 3.17188C35.9775 2.84831 35.9023 2.53613 35.9023 2.23535C35.9023 1.63379 36.137 1.11198 36.6064 0.669922C37.0804 0.223307 37.6751 0 38.3906 0C39.0742 0 39.6325 0.209635 40.0654 0.628906C40.5029 1.04818 40.7217 1.55176 40.7217 2.13965C40.7217 3.09212 40.0905 3.9056 38.8281 4.58008L40.626 6.87012C40.8311 6.46908 40.9906 6.00423 41.1045 5.47559L42.3828 5.74902C42.1641 6.62402 41.8678 7.34408 41.4941 7.90918C41.9544 8.51986 42.4762 9.03255 43.0596 9.44727L42.2324 10.4248C41.7357 10.1058 41.223 9.63411 40.6943 9.00977ZM38.1924 3.78711C38.7256 3.47266 39.0697 3.19694 39.2246 2.95996C39.3841 2.72298 39.4639 2.46094 39.4639 2.17383C39.4639 1.83203 39.3545 1.55404 39.1357 1.33984C38.9215 1.12109 38.6527 1.01172 38.3291 1.01172C37.9964 1.01172 37.7184 1.11882 37.4951 1.33301C37.2764 1.5472 37.167 1.80924 37.167 2.11914C37.167 2.27409 37.2057 2.43815 37.2832 2.61133C37.3652 2.77995 37.486 2.95996 37.6455 3.15137L38.1924 3.78711ZM39.9219 8.03906L37.666 5.24316C37.0007 5.63965 36.5518 6.00879 36.3193 6.35059C36.0869 6.68783 35.9707 7.02279 35.9707 7.35547C35.9707 7.76107 36.1325 8.18262 36.4561 8.62012C36.7796 9.05762 37.2376 9.27637 37.8301 9.27637C38.1992 9.27637 38.5798 9.16243 38.9717 8.93457C39.3682 8.70215 39.6849 8.40365 39.9219 8.03906ZM53.0469 6.26172V5.08594L57.292 5.0791V8.79785C56.6403 9.31738 55.9681 9.70931 55.2754 9.97363C54.5827 10.2334 53.8717 10.3633 53.1426 10.3633C52.1582 10.3633 51.2627 10.1536 50.4561 9.73438C49.654 9.31055 49.0479 8.69987 48.6377 7.90234C48.2275 7.10482 48.0225 6.21387 48.0225 5.22949C48.0225 4.25423 48.2253 3.34505 48.6309 2.50195C49.041 1.6543 49.6289 1.02539 50.3945 0.615234C51.1602 0.205078 52.042 0 53.04 0C53.7646 0 54.4186 0.11849 55.002 0.355469C55.5898 0.587891 56.0501 0.913737 56.3828 1.33301C56.7155 1.75228 56.9684 2.29915 57.1416 2.97363L55.9453 3.30176C55.7949 2.79134 55.6081 2.3903 55.3848 2.09863C55.1615 1.80697 54.8424 1.57454 54.4277 1.40137C54.013 1.22363 53.5527 1.13477 53.0469 1.13477C52.4408 1.13477 51.9167 1.22819 51.4746 1.41504C51.0326 1.59733 50.6748 1.83887 50.4014 2.13965C50.1325 2.44043 49.9229 2.77083 49.7725 3.13086C49.5173 3.75065 49.3896 4.42285 49.3896 5.14746C49.3896 6.04069 49.5423 6.78809 49.8477 7.38965C50.1576 7.99121 50.6064 8.43783 51.1943 8.72949C51.7822 9.02116 52.4066 9.16699 53.0674 9.16699C53.6416 9.16699 54.2021 9.05762 54.749 8.83887C55.2959 8.61556 55.7106 8.37858 55.9932 8.12793V6.26172H53.0469ZM64.0664 7.85449L65.3379 8.01172C65.1374 8.75456 64.766 9.33105 64.2236 9.74121C63.6813 10.1514 62.9886 10.3564 62.1455 10.3564C61.0837 10.3564 60.2406 10.0306 59.6162 9.37891C58.9964 8.72266 58.6865 7.80436 58.6865 6.62402C58.6865 5.40267 59.001 4.45475 59.6299 3.78027C60.2588 3.10579 61.0745 2.76855 62.0771 2.76855C63.0479 2.76855 63.8408 3.09896 64.4561 3.75977C65.0713 4.42057 65.3789 5.35026 65.3789 6.54883C65.3789 6.62174 65.3766 6.73112 65.3721 6.87695H59.958C60.0036 7.67448 60.2292 8.28516 60.6348 8.70898C61.0404 9.13281 61.5462 9.34473 62.1523 9.34473C62.6035 9.34473 62.9886 9.22624 63.3076 8.98926C63.6266 8.75228 63.8796 8.37402 64.0664 7.85449ZM60.0264 5.86523H64.0801C64.0254 5.25456 63.8704 4.79655 63.6152 4.49121C63.2233 4.01725 62.7152 3.78027 62.0908 3.78027C61.5257 3.78027 61.0495 3.9694 60.6621 4.34766C60.2793 4.72591 60.0674 5.23177 60.0264 5.86523ZM66.8896 10.1924V0.170898H68.1201V3.7666C68.6943 3.10124 69.4189 2.76855 70.2939 2.76855C70.8317 2.76855 71.2988 2.87565 71.6953 3.08984C72.0918 3.29948 72.3743 3.59115 72.543 3.96484C72.7161 4.33854 72.8027 4.88086 72.8027 5.5918V10.1924H71.5723V5.5918C71.5723 4.97656 71.4378 4.52995 71.1689 4.25195C70.9046 3.9694 70.5286 3.82812 70.041 3.82812C69.6764 3.82812 69.3324 3.92383 69.0088 4.11523C68.6898 4.30208 68.4619 4.55729 68.3252 4.88086C68.1885 5.20443 68.1201 5.65104 68.1201 6.2207V10.1924H66.8896ZM79.4199 9.29688C78.9642 9.68424 78.5244 9.95768 78.1006 10.1172C77.6813 10.2767 77.2301 10.3564 76.7471 10.3564C75.9495 10.3564 75.3366 10.1628 74.9082 9.77539C74.4798 9.38346 74.2656 8.88444 74.2656 8.27832C74.2656 7.92285 74.3454 7.59928 74.5049 7.30762C74.6689 7.01139 74.8809 6.77441 75.1406 6.59668C75.4049 6.41895 75.7012 6.28451 76.0293 6.19336C76.2708 6.12956 76.6354 6.06803 77.123 6.00879C78.1165 5.8903 78.848 5.74902 79.3174 5.58496C79.3219 5.41634 79.3242 5.30924 79.3242 5.26367C79.3242 4.76237 79.208 4.40918 78.9756 4.2041C78.6611 3.92611 78.194 3.78711 77.5742 3.78711C76.9954 3.78711 76.5671 3.88965 76.2891 4.09473C76.0156 4.29525 75.8128 4.65299 75.6807 5.16797L74.4775 5.00391C74.5869 4.48893 74.7669 4.07422 75.0176 3.75977C75.2682 3.44076 75.6305 3.19694 76.1045 3.02832C76.5785 2.85514 77.1276 2.76855 77.752 2.76855C78.3717 2.76855 78.8753 2.84147 79.2627 2.9873C79.6501 3.13314 79.9349 3.31771 80.1172 3.54102C80.2995 3.75977 80.4271 4.03776 80.5 4.375C80.541 4.58464 80.5615 4.96289 80.5615 5.50977V7.15039C80.5615 8.29427 80.5866 9.01888 80.6367 9.32422C80.6914 9.625 80.7962 9.91439 80.9512 10.1924H79.666C79.5384 9.93717 79.4564 9.63867 79.4199 9.29688ZM79.3174 6.54883C78.8708 6.73112 78.2008 6.88607 77.3076 7.01367C76.8018 7.08659 76.444 7.16862 76.2344 7.25977C76.0247 7.35091 75.863 7.48535 75.749 7.66309C75.6351 7.83626 75.5781 8.02995 75.5781 8.24414C75.5781 8.57227 75.7012 8.8457 75.9473 9.06445C76.1979 9.2832 76.5625 9.39258 77.041 9.39258C77.515 9.39258 77.9365 9.29004 78.3057 9.08496C78.6748 8.87533 78.946 8.59049 79.1191 8.23047C79.2513 7.95247 79.3174 7.54232 79.3174 7V6.54883ZM82.4482 10.1924V0.170898H83.6787V10.1924H82.4482ZM88.2793 9.0918L88.457 10.1787C88.1107 10.2516 87.8008 10.2881 87.5273 10.2881C87.0807 10.2881 86.7344 10.2174 86.4883 10.0762C86.2422 9.9349 86.069 9.75033 85.9688 9.52246C85.8685 9.29004 85.8184 8.80469 85.8184 8.06641V3.88965H84.916V2.93262H85.8184V1.13477L87.042 0.396484V2.93262H88.2793V3.88965H87.042V8.13477C87.042 8.48568 87.0625 8.71126 87.1035 8.81152C87.1491 8.91178 87.2197 8.99154 87.3154 9.05078C87.4157 9.11003 87.557 9.13965 87.7393 9.13965C87.876 9.13965 88.056 9.1237 88.2793 9.0918Z" fill="#7C7B7B"/>
</svg>
